<svg version="1" xmlns="http://www.w3.org/2000/svg" width="341.333" height="341.333" viewBox="0 0 256.000000 256.000000"><path d="M77.1 35.6c-3.6 1.5-5.3 3.1-14.1 13.5-3 3.5-6.5 7.5-7.7 8.9-48.6 56.6-50.2 58.5-51.7 63.7l-.7 2.2H97l1.7-3.7c2-4.5 5.2-8.6 20.7-26.6 9.7-11.3 12.1-13.6 13-12.4.6.8 3.1 3.9 5.6 6.7 2.5 2.9 5.9 6.9 7.6 8.9 1.7 2.1 5.7 6.6 8.9 10.2 6.5 7.4 9.5 13.3 9.9 19.3.4 7.7-2.2 12.7-13.2 25.2-1.5 1.7-6.5 7.4-11 12.8-4.6 5.3-8.8 9.7-9.2 9.7-.5 0-1.8-1.2-2.9-2.7-1.2-1.4-4.3-5.1-7-8.2-14.9-17.2-20-23.5-22-27.3l-2.2-4.3H50c-46.5 0-47 0-46.4 2 1.1 3.9 5.4 9.3 30.9 39 14.2 16.5 27.9 32.4 30.4 35.4 7.2 8.4 10.3 11.1 14.2 12.1 2 .6 22.9.9 50.5.9 52-.1 51.8-.1 57.4-6.5 1.4-1.6 5-5.9 8-9.4 3-3.6 5.7-6.7 6-7 .3-.3 3-3.4 6-7s6.6-7.9 8.1-9.5c14.6-16.2 35.6-41.7 37.2-45.3 2.7-6.2 2-15.2-1.6-20.8-1.4-2.1-16.9-20.6-34.4-40.9-21.1-24.6-33-37.6-35.3-38.7-3.2-1.6-7.8-1.8-52-1.8-40.6.1-49.1.3-51.9 1.6zM166 51c.4.3 10.4 12 22.4 26 12 14 23.9 27.9 26.5 30.9 6.9 8.1 8.3 10.9 8.9 17.7.3 4.6 0 7.1-1.5 10.5-1.6 3.6-10.9 15.2-25.2 31.4-1.4 1.6-10 11.7-19.1 22.3-9 10.5-16.7 19.2-17.1 19.2-.4 0-1.8-1.5-3.2-3.3-1.4-1.7-4.6-5.5-7.1-8.2-3.7-4.2-4.2-5.3-3.2-6.5 2.4-3 13.1-15.5 13.6-16 .3-.3 3-3.4 6-7s6-7 6.5-7.6c.6-.6 3.1-3.5 5.6-6.5 14-16.3 15.1-18.3 15.1-26.5.1-7.2-2.7-12.4-12.7-23.9-15.9-18.3-18.2-20.9-26.8-31.1l-8.6-10.1 7.5-8.7 7.6-8.7 2.1 2.8c1.2 1.5 2.4 3 2.7 3.3z"/></svg>